/* XPM */
static char *baf09ccd5b774bb4a2f9a0a818e24662RR6oLaGgl2BJ0yZv[] = {
/* columns rows colors chars-per-pixel */
"32 32 10 1 ",
"  c #25131A",
". c #362030",
"X c #3D253B",
"o c #593756",
"O c #895A45",
"+ c #8C7254",
"@ c #BF704D",
"# c #90919E",
"$ c #B19D83",
"% c #ADC1CF",
/* pixels */
"XX......................XX..XXXX",
"XX......................XX..XXXX",
"..XXXXXXXXXXXXXXXXXXXXXXXXXXXXXX",
"..XXXXXXX          XXXXXXXXXXXXX",
"..XXXXXXX          XXXXXXXXXXXXX",
"..XXXXXX ++$$$$$$++  XXXXXXXXXXX",
"..XXXXXX ++$$$$$$++  XXXXXXXXXXX",
"..XXXX  +$$$$$$$$$$++ XXXXXXXXXX",
"..XXXX  +$$$$$$$$$$++ XXXXXXXXXX",
"..XXXX  $oooo  $$oo   XXXXXXXXXX",
"..XXXX  $      $$     XXXXXXXXXX",
"..XXXX  $      $$     XXXXXXXXXX",
"XXXX     ++$$$$$$$$$$ XXXXXXXXXX",
"XXXX     ++$$$$$$$$$$ XXXXXXXXXX",
"..  ####%  ++$$  $$  ...      ..",
"..  ####%  ++$$  $$  ...      ..",
"XX  ##%%%               ####  XX",
"XX  ##%%%               ####  XX",
"XX         OO@@    $$ ##%%%%  XX",
"XX         OO@@    $$ ##%%%%  XX",
"XXXX  ++ ++  %%@@    $      XXXX",
"XXXX  ++ ++  %%@@    $      XXXX",
"XXXX     ++$$  OO  @@   XXXXXXXX",
"XXXXXXXX ++        XXXXXXXXXXXXX",
"XXXXXXXX ++        XXXXXXXXXXXXX",
"XXXXXX  $  XX  $$  XXXXXXXXXXXXX",
"..XXXX  $  XX  $$  XXXXXXXXXXXXX",
"..XXXX  +  XX  ++  XXXXXXXXXXXXX",
"..XXXX  +  XX  ++  XXXXXXXXXXXXX",
"..XXXXXXXXXXXXXXXXXXXXXXXXXXXXXX",
"..XXXXXXXXXXXXXXXXXXXXXXXXXXXXXX",
"..XXXXXXXXXXXXXXXXXXXXXXXXXXXXXX"
};
