/* XPM */
static char *c49967fdb99f4977c20665c41113d4f480NTKGAyF9Wyeof7[] = {
/* columns rows colors chars-per-pixel */
"32 32 6 1 ",
"  c #25131A",
". c #362030",
"X c #3D253B",
"o c #C09344",
"O c #FFD569",
"+ c #FFF1CC",
/* pixels */
"XX......................XX..XXXX",
"XX......................XX..XXXX",
"..XXXXXXXXXXXXXXXXXXXXXXXXXXXXXX",
"..XXXXXXXXX          XXXXXXXXXXX",
"..XXXXXXXXX          XXXXXXXXXXX",
"..XXXXXXX  oooooooooo  XXXXXXXXX",
"..XXXXXXX  oooooooooo  XXXXXXXXX",
"..XXXXXXX  oooooooooo  XXXXXXXXX",
"..XXXX   oo+++++++OOOoo   XXXXXX",
"..XXXX   oo+++++++OOOoo   XXXXXX",
"..XX  ooo+++++ooooOOO++ooo  XXXX",
"..XX  ooo+++++ooooOOO++ooo  XXXX",
"XXXX  ooo+++++ooooOOO++ooo  XXXX",
"XXXX  ooo++ooo++OOoooOOooo  XXXX",
"..XX  ooo++ooo++OOoooOOooo  ....",
"..XX  oooOOoooOOOOoooOOooo  ....",
"XXXX  oooOOoooOOOOoooOOooo  XXXX",
"XXXX  ooo++OOOooooOOOOOooo  XXXX",
"XXXX  ooo++OOOooooOOOOOooo  XXXX",
"XXXX  ooo++OOOooooOOOOOooo  XXXX",
"XXXXXX   ooOOOOOOOOOOoo   XXXXXX",
"XXXXXX   ooOOOOOOOOOOoo   XXXXXX",
"XXXXXXXXX  oooooooooo  XXXXXXXXX",
"XXXXXXXXX  oooooooooo  XXXXXXXXX",
"XXXXXXXXX  oooooooooo  XXXXXXXXX",
"XXXXXXXXXXX          XXXXXXXXXXX",
"..XXXXXXXXX          XXXXXXXXXXX",
"..XXXXXXXXXXXXXXXXXXXXXXXXXXXXXX",
"..XXXXXXXXXXXXXXXXXXXXXXXXXXXXXX",
"..XXXXXXXXXXXXXXXXXXXXXXXXXXXXXX",
"..XXXXXXXXXXXXXXXXXXXXXXXXXXXXXX",
"..XXXXXXXXXXXXXXXXXXXXXXXXXXXXXX"
};
