/* XPM */
static char *_5224ccde79f45638f7759f4d1d2770bjSiofknZtHbZieks[] = {
/* columns rows colors chars-per-pixel */
"32 32 8 1 ",
"  c #25131A",
". c #26141B",
"X c #27151C",
"o c #523B40",
"O c #895A45",
"+ c #8F909C",
"@ c #90919E",
"# c #ADC1CF",
/* pixels */
"                                ",
" X                            . ",
"    @@@@@@@@@@@@@@@@@@@@@@@@    ",
"    @@@@@@@@@@@@@@@@@@@@@@@@    ",
"  @@##  @@##        ##@@  ##@@  ",
"  @@##  @@##        ##@@  ##@@  ",
"  @@    @@##ooOOOOoo##@@    @@  ",
"  @@    @@##ooOOOOoo##@@    @@  ",
"  ##  oo@@############@@oo  ##  ",
"  ##  oo@@############@@oo  ##  ",
"  ##  OO####        ####OO  ##  ",
"  ##  OO####        ####OO  ##  ",
"  ##  OO    ooOOOOoo    OO  ##  ",
"  ##  OO    ooOOOOoo    OO  ##  ",
"  ##  OOooOOooOOOOooOOooOO  ##  ",
"  ##  OOooOOooOOOOooOOooOO  ##  ",
"  ##  OOooOOooOOOOooOOooOO  ##  ",
"  ##  OOooOOooOOOOooOOooOO  ##  ",
"  ##  OOooOOooOOOOooOOooOO  ##  ",
"  ##  OOooOOooOOOOooOOooOO  ##  ",
"  @@  OOooOOooOOOOooOOooOO  @@  ",
"  @@  OOooOOooOOOOooOOooOO  @@  ",
"  ##  OOooOOooOOOOooOOooOO  ##  ",
"  ##  OOooOOooOOOOooOOooOO  ##  ",
"  @@  oooooooooooooooooooo  @@  ",
"  @@  oooooooooooooooooooo  @@  ",
"  @@##                    ##@@  ",
"  @@##                    ##@+  ",
"    @@@@@@@@@@@@@@@@@@@@@@@@    ",
"    @@@@@@@@@@@@@@@@@@@@@@@@    ",
"                              . ",
"                                "
};
