/* XPM */
static char *_bc8de64348d450ac9440488bef5b52ajXVKLN8Njq4SuqWD[] = {
/* columns rows colors chars-per-pixel */
"32 32 2 1 ",
"  c #362030",
". c #3D253B",
/* pixels */
"..                      ..  ....",
"..                      ..  ....",
"  ..............................",
"  ..............................",
"  ..............................",
"  ..............................",
"  ..............................",
"  ..............................",
"  ..............  ..............",
"  ..............  ..............",
"  ..............  ..............",
"  ..............  ..............",
"................  ..............",
"................  ..............",
"  ..............                ",
"  ..............                ",
"................  ..............",
"................  ..............",
"................  ..............",
"................  ..............",
"................  ..............",
"................  ..............",
"................................",
"................................",
"................................",
"................................",
"  ..............................",
"  ..............................",
"  ..............................",
"  ..............................",
"  ..............................",
"  .............................."
};
